<?xml version="1.0" encoding="utf-8"?>
<!-- Generator: Adobe Illustrator 21.0.0, SVG Export Plug-In . SVG Version: 6.00 Build 0)  -->
<svg version="1.1" id="Layer_2" xmlns="http://www.w3.org/2000/svg" xmlns:xlink="http://www.w3.org/1999/xlink" x="0px" y="0px"
	 viewBox="0 0 298.1 80.2" style="enable-background:new 0 0 298.1 80.2;" xml:space="preserve">
<style type="text/css">
	.st0{fill:none;stroke:#EE3124;stroke-width:0.9886;stroke-linecap:round;stroke-miterlimit:3.864;}
</style>
<g>
	<polyline points="37.6,71.7 4.8,40.3 4.8,71.7 0,71.7 0,9.1 4.8,9.1 4.8,40.3 34.8,9.1 40.9,9.1 11.1,40.3 43.7,71.7 37.6,71.7 	
		"/>
	<polyline points="52.7,71.7 52.7,9.1 86.8,9.1 86.8,13.1 57.6,13.1 57.6,38.2 86.1,38.2 86.1,42.2 57.6,42.2 57.6,67.6 87.6,67.6 
		87.6,71.7 52.7,71.7 	"/>
	<polyline points="194.9,71.9 194.9,9.3 229,9.3 229,13.4 199.8,13.4 199.8,38.4 228.3,38.4 228.3,42.4 199.8,42.4 199.8,67.9 
		229.8,67.9 229.8,71.9 194.9,71.9 	"/>
	<path d="M292.9,71.9L283,50.2h-30.5l-9.9,21.7h-5l28.9-63h2.7l28.9,63H292.9 M267.7,16.8l-13.4,29.5h26.9L267.7,16.8z"/>
	<path class="st0" d="M147.6,39c0,0-7.7-2.9-11.6,4.9c-2.2,4.3,6.7,9.6,11,9.5c3.5-0.1,4.7-1.8,5.2-5.2c0.4-2.8-0.6-5.3-4.2-6
		c-1.5-0.3-3.8-0.1-5.4,2.3c-1.9,2.8,1.2,6.5,5.1,6.4s6.7-2.6,7.2-7c0.6-4.4-2.7-8-9.3-7.3c-3.8,0.4-6.4,1.3-6.7,4.5
		c-0.3,3.2,5.4,4.6,8.4,3.8c3.1-0.8,7-3.5,7-3.5s-0.8-7-7.2-9.3c-3.9-1.4-9.8,4.4-10.3,8c-0.5,3.7,6.1,8.9,10,8.2
		c3.9-0.6,7.2-7.1,7.2-7.1c0-28.4-40.8,9.2-11.2,11.1l11.2-6.5c0-6.2-3.3-15.5-11.1-14.5c-5,0.6-8.9,4.6-9.1,10.1s7.1,8.5,11.7,8
		s8.7-7.6,8.7-7.6s-2.3-7.4-7.2-7.6c-4.9-0.2-8.6,3.9-9.1,6.2c-0.4,2.3,0.9,4.9,2.7,5.9c1.8,1,4.9,0.2,4.9,0.2 M146.8,5.1
		c-34.4-7.6-79.7,75.1-5,75.1c53.8,0,51.4-79.6,5.5-79.6c-58.4,0-70,74.9-8.6,78.1c59.5,3.1,61.9-77.6,14.9-77.6
		c-62.6,0-73.4,79.1-20.7,79.1c47.8,0,55.7-67.3,12.5-67.3c-56.4,0-48.4,64.8,0,64.8c45.4,0,40.5-62.3-4.5-62.3
		c-46.1,0-41.7,51-2,60.3C182.1,85.8,184.5,7.6,149,7.6c-46.5,0-49,65.6-4.7,65.6c41.5,0,44.2-70.1,4.5-70.1
		c-46.2,0-71.5,64.7-16.7,68.3c48.4,3.2,58.9-57.6,19.7-57.6c-42.3,0-51.4,56.6-7.5,56.6c45.5,0,45.6-59.6,0.5-59.6
		c-45.2,0-41.5,64.3-1.5,64.3c37.5,0,36.4-68.1,1.5-68.1c-39,0-46,59.8-1.5,59.8c35.6,0,53.7-80-12.2-51.6"/>
</g>
</svg>
